<?xml version="1.0" encoding="UTF-8" standalone="no"?>
<svg
   xmlns:dc="http://purl.org/dc/elements/1.1/"
   xmlns:cc="http://creativecommons.org/ns#"
   xmlns:rdf="http://www.w3.org/1999/02/22-rdf-syntax-ns#"
   xmlns:svg="http://www.w3.org/2000/svg"
   xmlns="http://www.w3.org/2000/svg"
   xmlns:sodipodi="http://sodipodi.sourceforge.net/DTD/sodipodi-0.dtd"
   xmlns:inkscape="http://www.inkscape.org/namespaces/inkscape"
   width="105.81171mm"
   height="105.76469mm"
   viewBox="0 0 105.81171 105.76469"
   version="1.1"
   id="svg8"
   inkscape:version="1.0.2-2 (e86c870879, 2021-01-15)"
   sodipodi:docname="logo.svg">
  <defs
     id="defs2" />
  <sodipodi:namedview
     id="base"
     pagecolor="#ffffff"
     bordercolor="#666666"
     borderopacity="1.0"
     inkscape:pageopacity="0.0"
     inkscape:pageshadow="2"
     inkscape:zoom="0.98994949"
     inkscape:cx="375.6416"
     inkscape:cy="154.22947"
     inkscape:document-units="mm"
     inkscape:current-layer="layer1"
     inkscape:document-rotation="0"
     showgrid="false"
     fit-margin-top="0"
     fit-margin-left="0"
     fit-margin-right="0"
     fit-margin-bottom="0"
     inkscape:window-width="1920"
     inkscape:window-height="1017"
     inkscape:window-x="-8"
     inkscape:window-y="-8"
     inkscape:window-maximized="1" />
  <metadata
     id="metadata5">
    <rdf:RDF>
      <cc:Work
         rdf:about="">
        <dc:format>image/svg+xml</dc:format>
        <dc:type
           rdf:resource="http://purl.org/dc/dcmitype/StillImage" />
        <dc:title></dc:title>
      </cc:Work>
    </rdf:RDF>
  </metadata>
  <g
     inkscape:label="Ebene 1"
     inkscape:groupmode="layer"
     id="layer1"
     transform="translate(29.2016,-88.977414)">
    <path
       style="fill:#000000;stroke-width:0.264583"
       d="M 16.957379,194.35777 C 4.9599286,192.7489 -5.6596994,187.4325 -14.016749,178.8515 c -1.603857,-1.64684 -3.631183,-3.94675 -4.50517,-5.11092 -14.239574,-18.96738 -14.239574,-44.7972 0,-63.76458 3.455846,-4.60326 9.3290096,-9.982801 14.2481736,-13.050671 16.9920744,-10.59722 38.9639244,-10.59722 55.9560044,0 4.91916,3.06787 10.79233,8.447411 14.24817,13.050671 14.23958,18.96738 14.23958,44.7972 0,63.76458 -3.45584,4.60326 -9.32901,9.9828 -14.24817,13.05067 -4.57449,2.85291 -10.72671,5.40516 -15.93946,6.61249 -5.75241,1.33232 -13.1594,1.70849 -18.78542,0.95403 z m 16.1324,-4.87069 c 17.59331,-3.78658 31.42629,-16.09355 36.73198,-32.67983 1.84683,-5.77344 2.16896,-7.99361 2.16896,-14.94896 0,-6.95535 -0.32213,-9.17552 -2.16896,-14.94896 -4.68482,-14.64536 -16.50207,-26.46126 -31.17953,-31.175961 -5.83474,-1.87424 -7.69959,-2.1416 -14.93797,-2.1416 -7.23838,0 -9.10323,0.26736 -14.9379804,2.1416 -14.677452,4.714701 -26.4947006,16.530601 -31.1795236,31.175961 -1.846833,5.77344 -2.168959,7.99361 -2.168959,14.94896 0,6.95535 0.322126,9.17552 2.168959,14.94896 4.683635,14.64164 16.5448996,26.50185 31.1685436,31.16576 6.0943104,1.94366 8.6947004,2.29717 16.0072904,2.17614 4.56014,-0.0755 6.21196,-0.20681 8.32719,-0.66207 z m -15.57691,-7.81259 c -17.88827044,-2.9096 -31.426208,-16.90378 -33.782895,-34.92141 -0.430473,-3.2911 -0.161019,-9.86504 0.538975,-13.14953 3.344092,-15.691 15.46280956,-27.77348 31.31567,-31.22204 2.29273,-0.49875 3.50644,-0.58641 8.11964,-0.58641 4.6132,0 5.8269,0.0877 8.11964,0.58641 15.91314,3.46167 27.89547,15.444 31.35714,31.35714 0.49875,2.29274 0.58641,3.50644 0.58641,8.11964 0,4.6132 -0.0877,5.8269 -0.58641,8.11964 -3.44866,15.85332 -15.49634,27.93901 -31.22205,31.32057 -3.41058,0.7334 -11.02964,0.9317 -14.44612,0.37599 z M 9.6813386,168.99798 c 5.2568704,-1.12421 9.8093904,-4.27886 12.5225604,-8.67744 0.60692,-0.98393 1.28208,-1.78897 1.50036,-1.78897 0.21828,0 0.89344,0.80504 1.50036,1.78897 2.71317,4.39858 7.26569,7.55323 12.52256,8.67744 3.95403,0.8456 10.90486,0.21489 12.09289,-1.09728 1.3217,-1.45981 0.9019,-3.96222 -0.80091,-4.77423 -0.84014,-0.40064 -1.08377,-0.4008 -3.25577,-0.002 -1.29122,0.23699 -2.94298,0.42858 -3.67059,0.42576 -1.87957,-0.007 -4.78228,-0.67255 -6.41062,-1.46922 -1.48926,-0.72867 -4.305,-2.88954 -4.305,-3.3038 0,-0.14079 1.18819,-0.25005 2.71925,-0.25005 3.07783,0 3.69673,-0.25381 4.33318,-1.77706 0.47595,-1.13911 0.11516,-2.45557 -0.88956,-3.24588 -0.61503,-0.48379 -1.06776,-0.53331 -4.87564,-0.53331 -4.19765,0 -4.19765,0 -4.19765,-0.79375 0,-0.79375 0,-0.79375 3.84496,-0.79375 4.52533,0 5.35516,-0.23619 6.0618,-1.72531 0.40103,-0.84511 0.42588,-1.15371 0.16347,-2.02957 -0.50973,-1.70133 -1.40655,-2.06379 -5.10929,-2.06496 -1.70987,-5.3e-4 -3.10886,-0.10193 -3.10886,-0.2253 0,-0.12337 0.68461,-0.87598 1.52136,-1.67246 1.06874,-1.01733 2.54464,-1.97496 4.96093,-3.21888 6.74055,-3.47008 9.7553,-6.56165 11.65309,-11.94998 0.68882,-1.95577 0.62821,-6.35999 -0.11623,-8.44552 -1.58997,-4.45431 -5.19454,-7.97414 -9.24704,-9.02968 -2.9852,-0.77755 -6.82005,-0.3123 -9.30127,1.12843 -2.19727,1.27585 -3.95742,2.81073 -4.25407,3.7096 -0.62186,1.88424 0.85769,3.77046 2.95925,3.77264 0.68761,7.9e-4 1.29974,-0.2629 2.1914,-0.94373 3.68228,-2.81163 7.29979,-2.79404 10.06085,0.0489 1.6261,1.67435 2.14017,3.06903 2.13436,5.79059 -0.004,2.05262 -0.10098,2.56382 -0.70004,3.70417 -1.47028,2.79877 -4.37325,5.25381 -8.29071,7.01146 -4.02342,1.80518 -7.66785,4.95709 -9.26441,8.0124 -0.43437,0.83123 -0.84929,1.51134 -0.92205,1.51134 -0.0728,0 -0.48769,-0.68011 -0.92205,-1.51134 -1.59657,-3.05531 -5.241,-6.20722 -9.26441,-8.0124 -3.9174604,-1.75765 -6.8204304,-4.21269 -8.2907104,-7.01146 -0.59906,-1.14035 -0.69567,-1.65155 -0.70005,-3.70417 -0.006,-2.72156 0.50827,-4.11624 2.13437,-5.79059 2.76105,-2.84296 6.3785604,-2.86055 10.0608504,-0.0489 0.89165,0.68083 1.50378,0.94444 2.1914,0.94373 2.10156,-0.002 3.58111,-1.8884 2.95925,-3.77264 -0.49855,-1.51062 -4.27011,-4.09508 -7.02164,-4.81157 -6.6860704,-1.74104 -13.2905404,2.02693 -15.78075044,9.00322 -0.74443796,2.08553 -0.80504896,6.48975 -0.11622196,8.44552 1.29611196,3.68002 3.379812,6.5516 6.397322,8.81622 0.9989,0.74967 3.36399,2.15986 5.2557604,3.13376 2.41629,1.24392 3.8922,2.20155 4.96094,3.21888 0.83674,0.79648 1.52135,1.54909 1.52135,1.67246 0,0.12337 -1.39898,0.22475 -3.10885,0.2253 -3.70275,0.001 -4.5995604,0.36363 -5.1093004,2.06496 -0.26241,0.87586 -0.23755,1.18446 0.16348,2.02957 0.70663,1.48912 1.5364704,1.72531 6.0618004,1.72531 3.84496,0 3.84496,0 3.84496,0.79375 0,0.79375 0,0.79375 -4.19765,0.79375 -3.80788,0 -4.26061,0.0495 -4.8756404,0.53331 -1.00473,0.79031 -1.36551,2.10677 -0.88957,3.24588 0.63646,1.52325 1.2553604,1.77706 4.3331904,1.77706 1.53105,0 2.71925,0.10926 2.71925,0.25005 0,0.41426 -2.81575,2.57513 -4.30501,3.30376 -1.62833,0.79667 -4.5310404,1.46193 -6.4106104,1.46922 -0.72761,0.003 -2.37937,-0.18877 -3.6706,-0.42576 -2.17200004,-0.39864 -2.41562004,-0.39848 -3.255768,0.002 -1.703134,0.81217 -2.121949,3.31061 -0.800907,4.77782 0.412496,0.45813 1.126352,0.76055 2.43560496,1.03184 2.40511004,0.49835 7.46466004,0.53076 9.65729004,0.0618 z"
       id="path24" />
  </g>
</svg>
